<svg width="237" height="59" viewBox="0 0 237 59" fill="none" xmlns="http://www.w3.org/2000/svg">
<path d="M16.7308 19.1154V24.6303H13.9423C12.7856 24.6303 11.6909 24.8576 10.6581 25.312C9.66666 25.7251 8.77849 26.3241 7.99359 27.109C7.25 27.8526 6.651 28.7407 6.19658 29.7735C5.78347 30.765 5.57692 31.839 5.57692 32.9957V46.938H0V32.9957C0 31.0541 0.35114 29.2571 1.05342 27.6047C1.79701 25.911 2.80912 24.4445 4.08974 23.2051C5.37037 21.9245 6.85755 20.9331 8.55128 20.2308C10.245 19.4872 12.042 19.1154 13.9423 19.1154H16.7308ZM40.1475 37.1474L44.0514 41.0513L42.1304 42.9722C40.8085 44.2942 39.3007 45.3063 37.6069 46.0085C35.9132 46.7108 34.1369 47.062 32.2779 47.062C30.4189 47.062 28.6426 46.7108 26.9488 46.0085C25.2551 45.3063 23.7473 44.2942 22.4253 42.9722C21.0621 41.609 20.05 40.0805 19.389 38.3868C18.728 36.6517 18.3975 34.896 18.3975 33.1197C18.3975 31.3433 18.728 29.6083 19.389 27.9145C20.05 26.2208 21.0621 24.6923 22.4253 23.3291C23.7886 21.9658 25.3171 20.9537 27.0108 20.2927C28.7458 19.5905 30.5015 19.2393 32.2779 19.2393C34.0542 19.2393 35.7893 19.5905 37.483 20.2927C39.2181 20.9537 40.7672 21.9658 42.1304 23.3291L44.0514 25.25L28.6219 40.6795C30.1917 41.4644 31.8441 41.7329 33.5792 41.485C35.3555 41.1959 36.9047 40.3903 38.2266 39.0684L40.1475 37.1474ZM26.3292 27.1709C24.6767 28.8234 23.8505 30.8063 23.8505 33.1197C23.8505 34.4003 24.1397 35.6189 24.7181 36.7756C25.2138 36.2799 25.9574 35.5363 26.9488 34.5449C27.9816 33.5121 29.0557 32.438 30.171 31.3227C31.3277 30.166 32.4225 29.0712 33.4552 28.0385C34.5293 27.0057 35.3555 26.2001 35.9339 25.6218C34.3641 24.8369 32.691 24.5684 30.9146 24.8162C29.1796 25.0641 27.6511 25.849 26.3292 27.1709ZM50.0195 23.2051C51.3827 21.8419 52.9112 20.8298 54.6049 20.1688C56.34 19.4665 58.0957 19.1154 59.872 19.1154C61.6484 19.1154 63.3834 19.4665 65.0772 20.1688C66.8122 20.8298 68.3613 21.8419 69.7246 23.2051L71.6455 25.1261L67.8037 29.0299L65.8207 27.109C64.9945 26.2828 64.065 25.6631 63.0323 25.25C61.9995 24.8369 60.9461 24.6303 59.872 24.6303C58.798 24.6303 57.7445 24.8369 56.7118 25.25C55.679 25.6631 54.7495 26.2828 53.9233 27.109C53.0971 27.8939 52.4774 28.8027 52.0643 29.8355C51.6512 30.8682 51.4447 31.9217 51.4447 32.9957C51.4447 34.0698 51.6512 35.1232 52.0643 36.156C52.4774 37.1887 53.0971 38.1182 53.9233 38.9444C55.5757 40.5969 57.5586 41.4231 59.872 41.4231C60.9874 41.4231 62.0615 41.2165 63.0943 40.8034C64.127 40.3903 65.0358 39.7707 65.8207 38.9444L67.8037 37.0235L71.6455 40.9274L69.7246 42.8483C68.3613 44.2115 66.8122 45.2443 65.0772 45.9466C63.3834 46.6075 61.6484 46.938 59.872 46.938C58.0957 46.938 56.34 46.6075 54.6049 45.9466C52.9112 45.2443 51.3827 44.2115 50.0195 42.8483C48.6562 41.485 47.6441 39.9566 46.9831 38.2628C46.3222 36.5691 45.9917 34.834 45.9917 33.0577C45.9917 31.24 46.3222 29.4843 46.9831 27.7906C47.6441 26.0969 48.6562 24.5684 50.0195 23.2051ZM73.8264 33.1197C73.8264 31.1781 74.1776 29.3811 74.8798 27.7286C75.6234 26.0349 76.6149 24.5684 77.8542 23.3291C79.1348 22.0484 80.622 21.057 82.3157 20.3547C84.0095 19.6111 85.8065 19.2393 87.7068 19.2393C89.6484 19.2393 91.4454 19.6111 93.0978 20.3547C94.7915 21.057 96.2787 22.0484 97.5593 23.3291C98.84 24.5684 99.8314 26.0349 100.534 27.7286C101.277 29.3811 101.649 31.1781 101.649 33.1197C101.649 35.0199 101.277 36.817 100.534 38.5107C99.8314 40.2044 98.84 41.6916 97.5593 42.9722C96.2787 44.2528 94.7915 45.265 93.0978 46.0085C91.4454 46.7108 89.6484 47.062 87.7068 47.062C85.8065 47.062 84.0095 46.7108 82.3157 46.0085C80.622 45.265 79.1348 44.2528 77.8542 42.9722C76.6149 41.6916 75.6234 40.2044 74.8798 38.5107C74.1776 36.817 73.8264 35.0199 73.8264 33.1197ZM79.2794 33.1197C79.2794 34.2764 79.486 35.3711 79.8991 36.4038C80.3535 37.4366 80.9525 38.3454 81.6961 39.1303C82.481 39.8739 83.3898 40.4729 84.4226 40.9274C85.4553 41.3405 86.5501 41.547 87.7068 41.547C88.8635 41.547 89.9582 41.3405 90.991 40.9274C92.0237 40.4729 92.9119 39.8739 93.6555 39.1303C94.4404 38.3454 95.0394 37.4366 95.4525 36.4038C95.9069 35.3711 96.1341 34.2764 96.1341 33.1197C96.1341 31.963 95.9069 30.8889 95.4525 29.8974C95.0394 28.8647 94.4404 27.9765 93.6555 27.2329C92.9119 26.448 92.0237 25.849 90.991 25.4359C89.9582 24.9815 88.8635 24.7543 87.7068 24.7543C86.5501 24.7543 85.4553 24.9815 84.4226 25.4359C83.3898 25.849 82.481 26.448 81.6961 27.2329C80.9525 27.9765 80.3535 28.8647 79.8991 29.8974C79.486 30.8889 79.2794 31.963 79.2794 33.1197ZM103.478 33.0577C103.478 31.1161 103.829 29.3191 104.531 27.6667C105.275 25.9729 106.266 24.5064 107.506 23.2671C108.786 21.9865 110.274 20.995 111.967 20.2927C113.661 19.5492 115.458 19.1774 117.358 19.1774C119.3 19.1774 121.097 19.5492 122.749 20.2927C124.443 20.995 125.93 21.9865 127.211 23.2671C128.492 24.5064 129.483 25.9729 130.185 27.6667C130.929 29.3191 131.301 31.1161 131.301 33.0577V47H125.786V33.0577C125.786 31.901 125.559 30.8269 125.104 29.8355C124.691 28.8027 124.092 27.9145 123.307 27.1709C122.564 26.386 121.675 25.787 120.643 25.3739C119.61 24.9195 118.515 24.6923 117.358 24.6923C116.202 24.6923 115.107 24.9195 114.074 25.3739C113.083 25.787 112.195 26.386 111.41 27.1709C110.666 27.9145 110.067 28.8027 109.613 29.8355C109.2 30.8269 108.993 31.901 108.993 33.0577V47H103.478V33.0577ZM133.13 33.0577C133.13 31.1161 133.481 29.3191 134.183 27.6667C134.927 25.9729 135.918 24.5064 137.157 23.2671C138.438 21.9865 139.925 20.995 141.619 20.2927C143.313 19.5492 145.11 19.1774 147.01 19.1774C148.952 19.1774 150.749 19.5492 152.401 20.2927C154.095 20.995 155.582 21.9865 156.863 23.2671C158.143 24.5064 159.135 25.9729 159.837 27.6667C160.58 29.3191 160.952 31.1161 160.952 33.0577V47H155.437V33.0577C155.437 31.901 155.21 30.8269 154.756 29.8355C154.343 28.8027 153.744 27.9145 152.959 27.1709C152.215 26.386 151.327 25.787 150.294 25.3739C149.261 24.9195 148.167 24.6923 147.01 24.6923C145.853 24.6923 144.759 24.9195 143.726 25.3739C142.734 25.787 141.846 26.386 141.061 27.1709C140.318 27.9145 139.719 28.8027 139.264 29.8355C138.851 30.8269 138.645 31.901 138.645 33.0577V47H133.13V33.0577ZM184.593 37.1474L188.497 41.0513L186.576 42.9722C185.254 44.2942 183.746 45.3063 182.053 46.0085C180.359 46.7108 178.583 47.062 176.724 47.062C174.865 47.062 173.088 46.7108 171.394 46.0085C169.701 45.3063 168.193 44.2942 166.871 42.9722C165.508 41.609 164.496 40.0805 163.835 38.3868C163.174 36.6517 162.843 34.896 162.843 33.1197C162.843 31.3433 163.174 29.6083 163.835 27.9145C164.496 26.2208 165.508 24.6923 166.871 23.3291C168.234 21.9658 169.763 20.9537 171.456 20.2927C173.191 19.5905 174.947 19.2393 176.724 19.2393C178.5 19.2393 180.235 19.5905 181.929 20.2927C183.664 20.9537 185.213 21.9658 186.576 23.3291L188.497 25.25L173.068 40.6795C174.637 41.4644 176.29 41.7329 178.025 41.485C179.801 41.1959 181.35 40.3903 182.672 39.0684L184.593 37.1474ZM170.775 27.1709C169.122 28.8234 168.296 30.8063 168.296 33.1197C168.296 34.4003 168.585 35.6189 169.164 36.7756C169.659 36.2799 170.403 35.5363 171.394 34.5449C172.427 33.5121 173.501 32.438 174.617 31.3227C175.773 30.166 176.868 29.0712 177.901 28.0385C178.975 27.0057 179.801 26.2001 180.38 25.6218C178.81 24.8369 177.137 24.5684 175.36 24.8162C173.625 25.0641 172.097 25.849 170.775 27.1709ZM194.465 23.2051C195.828 21.8419 197.357 20.8298 199.051 20.1688C200.786 19.4665 202.541 19.1154 204.318 19.1154C206.094 19.1154 207.829 19.4665 209.523 20.1688C211.258 20.8298 212.807 21.8419 214.17 23.2051L216.091 25.1261L212.249 29.0299L210.266 27.109C209.44 26.2828 208.511 25.6631 207.478 25.25C206.445 24.8369 205.392 24.6303 204.318 24.6303C203.244 24.6303 202.19 24.8369 201.157 25.25C200.125 25.6631 199.195 26.2828 198.369 27.109C197.543 27.8939 196.923 28.8027 196.51 29.8355C196.097 30.8682 195.89 31.9217 195.89 32.9957C195.89 34.0698 196.097 35.1232 196.51 36.156C196.923 37.1887 197.543 38.1182 198.369 38.9444C200.021 40.5969 202.004 41.4231 204.318 41.4231C205.433 41.4231 206.507 41.2165 207.54 40.8034C208.573 40.3903 209.482 39.7707 210.266 38.9444L212.249 37.0235L216.091 40.9274L214.17 42.8483C212.807 44.2115 211.258 45.2443 209.523 45.9466C207.829 46.6075 206.094 46.938 204.318 46.938C202.541 46.938 200.786 46.6075 199.051 45.9466C197.357 45.2443 195.828 44.2115 194.465 42.8483C193.102 41.485 192.09 39.9566 191.429 38.2628C190.768 36.5691 190.437 34.834 190.437 33.0577C190.437 31.24 190.768 29.4843 191.429 27.7906C192.09 26.0969 193.102 24.5684 194.465 23.2051ZM234.941 41.4231V46.938H232.214C230.314 46.938 228.517 46.5869 226.823 45.8846C225.13 45.141 223.642 44.1289 222.362 42.8483C221.081 41.5677 220.069 40.0805 219.325 38.3868C218.623 36.693 218.272 34.896 218.272 32.9957V7.96155H223.787V24.6923H234.941V30.2073H223.787V32.9957C223.787 34.1524 223.994 35.2472 224.407 36.2799C224.861 37.3127 225.46 38.2215 226.204 39.0064C226.989 39.75 227.897 40.349 228.93 40.8034C229.963 41.2165 231.058 41.4231 232.214 41.4231H234.941Z" fill="#189332"/>
</svg>
